<?xml version="1.0" encoding="utf-8"?>
<!-- Generator: Adobe Illustrator 22.1.0, SVG Export Plug-In . SVG Version: 6.00 Build 0)  -->
<svg version="1.1" id="圖層_1" focusable="false" xmlns="http://www.w3.org/2000/svg" xmlns:xlink="http://www.w3.org/1999/xlink"
	 x="0px" y="0px" viewBox="0 0 464 512" style="enable-background:new 0 0 464 512;" xml:space="preserve">
<style type="text/css">
	.st0{fill:#FFFFFF;}
</style>
<path class="st0" d="M405.7,256l53.2-89.4c14.4-24.2-3.4-54.6-32-54.6H320l-56-94c-7.1-12-19.6-18-32-18s-24.9,6-32,18l-56,94H37.1
	c-28.6,0-46.4,30.4-32,54.6L58.3,256L5.1,345.4c-14.4,24.2,3.4,54.6,32,54.6H144l55.9,94c7.1,12,19.6,18,32,18s24.9-6,32-18l55.9-94
	h106.9c28.6,0,46.4-30.4,32-54.6L405.7,256z M392.9,168l-19.8,33.3L353.3,168H392.9z M340.5,256l-52.4,88H175.9l-52.4-88l52.4-88
	h112.2L340.5,256z M232,73.7l22.8,38.3h-45.6L232,73.7z M71.1,168h39.6l-19.8,33.3L71.1,168z M71.1,344l19.8-33.3l19.8,33.3H71.1z
	 M232,438.3L209.2,400h45.6L232,438.3z M353.3,344l19.8-33.3l19.8,33.3H353.3L353.3,344z"/>
</svg>
